<?xml version="1.0" encoding="UTF-8"?>
<svg width="34px" height="34px" viewBox="0 0 34 34" version="1.1" xmlns="http://www.w3.org/2000/svg" xmlns:xlink="http://www.w3.org/1999/xlink">
    <!-- Generator: Sketch 42 (36781) - http://www.bohemiancoding.com/sketch -->
    <title>Combined Shape</title>
    <desc>Created with Sketch.</desc>
    <defs></defs>
    <g id="Page-1" stroke="none" stroke-width="1" fill="none" fill-rule="evenodd">
        <g class="icon-color" id="main" transform="translate(-300.000000, -2835.000000)" fill="#3A66C2">
            <g id="Group-26" transform="translate(0.000000, 2733.000000)">
                <path d="M332.012439,136 L301.870046,136 C300.836945,136 300,135.159627 300,134.123344 L300,103.876524 C300,102.839977 300.837077,102 301.870046,102 L332.012439,102 C333.045145,102 333.882353,102.839977 333.882353,103.876524 L333.882353,134.123344 C333.882353,135.159759 333.045013,136 332.012439,136 Z M323.378333,136 L323.378333,122.833326 L327.782486,122.833326 L328.441945,117.70204 L323.378333,117.70204 L323.378333,114.426038 C323.378333,112.940412 323.789443,111.928007 325.91244,111.928007 L328.62022,111.92682 L328.62022,107.337356 C328.151919,107.274823 326.544553,107.135112 324.674507,107.135112 C320.770471,107.135112 318.097663,109.526414 318.097663,113.917856 L318.097663,117.70204 L313.682204,117.70204 L313.682204,122.833326 L318.097663,122.833326 L318.097663,136 L323.378333,136 Z" id="Combined-Shape"></path>
            </g>
        </g>
    </g>
</svg>