<?xml version="1.0" encoding="UTF-8"?>
<svg width="86px" height="22px" viewBox="0 0 86 22" version="1.1" xmlns="http://www.w3.org/2000/svg" xmlns:xlink="http://www.w3.org/1999/xlink">
    <!-- Generator: Sketch 42 (36781) - http://www.bohemiancoding.com/sketch -->
    <title>Group 34</title>
    <desc>Created with Sketch.</desc>
    <defs></defs>
    <g id="Page-1" stroke="none" stroke-width="1" fill="none" fill-rule="evenodd" opacity="0.560000002">
        <g id="main" transform="translate(-928.000000, -2911.000000)" fill="#FFFFFF">
            <g id="Group-34" transform="translate(928.000000, 2911.000000)">
                <path d="M6.89512679,7.93012672 C6.26079147,8.1185542 5.69300377,8.39347023 5.19193433,8.75453893 C5.08213075,8.8646229 5.06634702,8.97470687 5.1449244,9.08437099 L5.40335099,9.60263053 C5.48150179,9.68139389 5.53619028,9.71666107 5.56775774,9.70851603 C5.59898393,9.70087481 5.66177758,9.68139389 5.7557121,9.64965344 C6.66383115,9.10015725 7.6975375,8.80172977 8.85674583,8.75453893 C9.16986091,8.73917252 9.50276964,8.74286718 9.85521607,8.76629466 C10.2075772,8.78989008 10.5559284,8.84102748 10.9006109,8.91945496 L10.9006109,15.1853405 C10.5401446,15.3737679 10.1760097,15.5232336 9.80820615,15.6328977 C9.44006131,15.7429817 9.07592639,15.8330809 8.71580139,15.9037832 C8.35533512,15.9744855 8.0146625,16.0215924 7.69386885,16.0451878 C7.37264861,16.0686992 7.0867498,16.080455 6.83642837,16.080455 C5.8338629,16.080455 4.97642242,15.9078137 4.26393631,15.5621954 C3.55110893,15.2169969 2.96779345,14.729974 2.51373393,14.1017985 C2.05933313,13.4737908 1.72676567,12.7159664 1.51526369,11.8285771 C1.30384702,10.9415237 1.19813869,9.94816489 1.19813869,8.84875267 C1.19813869,7.82818779 1.3115256,6.86237099 1.53881131,5.95147023 C1.76567044,5.04082137 2.11803155,4.24361527 2.59597996,3.56052366 C3.07350179,2.87734809 3.68027956,2.3355771 4.41665456,1.93512672 C5.15260298,1.53467634 6.02958115,1.33440916 7.04784504,1.33440916 C7.64284901,1.33440916 8.26541052,1.39335573 8.91544425,1.51108092 C9.56522202,1.62889008 10.2428133,1.86853893 10.9476208,2.22952366 C11.0569978,2.29250076 11.1509323,2.26890534 11.2295097,2.15890534 L11.5349462,1.52283664 C11.5973133,1.39738626 11.573851,1.28730229 11.4643887,1.19308855 C10.6498629,0.769126718 9.87466845,0.490516031 9.13863472,0.356920611 C8.40225972,0.223661069 7.6975375,0.156653435 7.02429742,0.156653435 C5.97489266,0.156653435 5.0193371,0.353225954 4.15822798,0.745531298 C3.29669226,1.13825649 2.55664861,1.70765344 1.93818234,2.45338626 C1.31928948,3.19945496 0.841682341,4.10632519 0.50510496,5.17399695 C0.16818631,6.24217252 2.55952382e-05,7.45897405 2.55952382e-05,8.82524122 C2.55952382e-05,10.2702718 0.1564125,11.5146153 0.469868849,12.5588595 C0.782983929,13.6034397 1.2333748,14.4668977 1.8207002,15.1499893 C2.4080256,15.8330809 3.11283313,16.3358901 3.9350375,16.6575771 C4.75724187,16.9792641 5.68523988,17.1404855 6.71894623,17.1404855 C6.98505139,17.1404855 7.3139502,17.1286458 7.70564266,17.1051344 C8.09690853,17.0816229 8.51206329,17.0344321 8.95068036,16.9638137 C9.38904147,16.8931115 9.84344226,16.787142 10.3132855,16.6458214 C10.7831288,16.5045008 11.2371883,16.3160733 11.6758907,16.080455 C11.8480613,16.0021115 11.9577796,15.9000885 12.0047895,15.7742183 C12.0517141,15.6487679 12.0752617,15.4915771 12.0752617,15.3030656 L12.0752617,8.96656183 C12.0752617,8.6055771 11.9966843,8.34233282 11.8402974,8.17741679 C11.6835692,8.01258473 11.448605,7.89889008 11.1355752,7.83591298 C10.7596665,7.7574855 10.4189938,7.70626412 10.1136427,7.68283664 C9.80820615,7.65924122 9.4282875,7.64740153 8.97422798,7.64740153 C8.22249583,7.64740153 7.52937679,7.74169924 6.89512679,7.93012672" id="Fill-1"></path>
                <path d="M16.1862238,9.9088 C16.2648012,8.50281527 16.641819,7.37401374 17.3171921,6.52222748 C17.9925651,5.67052519 18.9506802,5.2448 20.1917079,5.2448 C20.9611008,5.2448 21.6053329,5.37394504 22.1236365,5.63156336 C22.6419401,5.88926565 23.058204,6.23295267 23.3724282,6.66287634 C23.6866524,7.0928 23.9065155,7.5888916 24.0320175,8.15131908 C24.1576048,8.7136626 24.2207397,9.2996855 24.2207397,9.9088 L16.1862238,9.9088 Z M18.4877162,10.8982122 L24.1502675,10.8982122 C24.5103071,10.8982122 24.7922813,10.8197008 24.9960194,10.6626779 C25.199331,10.5057389 25.3013706,10.183716 25.3013706,9.69686107 C25.3013706,8.92753282 25.2033409,8.20909008 25.0077079,7.54144885 C24.8117337,6.87414351 24.5103071,6.29702137 24.1032575,5.81008244 C23.6958667,5.32347939 23.1712496,4.94259389 22.5292357,4.66759389 C21.8868806,4.39301374 21.119706,4.25538779 20.226944,4.25538779 C19.4436444,4.25538779 18.7351683,4.39301374 18.1009183,4.66759389 C17.4665829,4.94259389 16.9222575,5.3548 16.4681127,5.90429618 C16.0137119,6.45421221 15.6612655,7.13318931 15.410944,7.94189924 C15.1602813,8.75086107 15.0351206,9.68132672 15.0351206,10.7332962 C15.0351206,12.9633573 15.5049639,14.5886702 16.4446504,15.6094031 C17.3843369,16.6303038 18.6841484,17.1405023 20.3444262,17.1405023 C20.9394302,17.1405023 21.5227456,17.0852504 22.0946286,16.9755863 C22.6661702,16.8658382 23.2024758,16.6616244 23.7038865,16.363113 C23.8132635,16.3160061 23.8367258,16.2299374 23.7743587,16.1039832 L23.4924698,15.5622122 C23.4609024,15.4838687 23.4219976,15.444487 23.3749877,15.444487 C23.3279778,15.444487 23.272948,15.4602733 23.2104956,15.4915939 C22.8346722,15.6958076 22.4037337,15.8566931 21.918448,15.9745023 C21.432821,16.0922275 20.9317516,16.151174 20.4148984,16.151174 C19.8041107,16.151174 19.2402476,16.0569603 18.7233944,15.8684489 C18.2066266,15.6800214 17.7562357,15.3778153 17.3725631,14.9615786 C16.9886345,14.5456779 16.6913032,14.0038229 16.4798865,13.3361817 C16.2715251,12.6785198 16.1658388,11.8796774 16.1628277,10.9396545 L16.1624333,10.9396615 L16.162788,10.9244394 C16.1627703,10.9157091 16.1627615,10.9069667 16.1627615,10.8982122 L16.1864525,9.9088 C16.1864525,9.9088 18.7062811,9.9088 18.5876496,9.9088 C18.2863757,9.87453832 18.2863757,10.1315439 18.2863757,10.1315439 L18.2863757,10.6345765 C18.2863757,10.914284 18.57136,10.8967212 18.57136,10.8967212 L18.4877162,10.8982122 Z" id="Combined-Shape"></path>
                <path d="M29.3889899,5.45672214 L29.3889899,14.1489053 C29.3889899,15.1698901 29.6004065,15.9118443 30.0233252,16.3749359 C30.4461585,16.8382794 31.2291169,17.0697832 32.3725415,17.0697832 C32.5759383,17.0697832 32.8930633,17.0503023 33.3240018,17.0124321 C33.754599,16.9738061 34.1657438,16.9008366 34.557351,16.7937756 C34.6668133,16.7632107 34.7060593,16.6866305 34.6748331,16.5636992 L34.557351,16.0097527 C34.5415673,15.9155389 34.4634165,15.8765771 34.322472,15.8920275 C33.9777895,15.9707908 33.6294383,16.0215924 33.2770772,16.0451038 C32.9246308,16.0686992 32.6621942,16.080455 32.4900236,16.080455 C32.0671903,16.080455 31.7265177,16.0333481 31.4680911,15.9387985 C31.2096645,15.8445847 31.0100216,15.7105695 30.8689919,15.5375924 C30.7281327,15.3646153 30.6341129,15.148226 30.587103,14.8883405 C30.5401784,14.6285389 30.5166308,14.3413634 30.5166308,14.0266458 L30.5166308,5.45672214 L33.5471923,5.45672214 C33.672353,5.45672214 33.7351466,5.38610382 33.7351466,5.24478321 L33.7351466,4.72652366 C33.7351466,4.58511908 33.672353,4.51450076 33.5471923,4.51450076 L30.5166308,4.51450076 L30.5166308,1.82915725 C30.5166308,1.6406458 30.4380534,1.57808855 30.2817518,1.6406458 L29.8588331,1.78196641 C29.7802558,1.81370687 29.7255673,1.84905802 29.6944264,1.88801985 C29.6628589,1.92740153 29.6474165,2.00213435 29.6474165,2.11179847 L29.4359998,4.44388244 L27.5330792,4.65582137 C27.3921347,4.6716916 27.3216625,4.75003511 27.3216625,4.89143969 L27.3216625,5.24478321 C27.3216625,5.38610382 27.3921347,5.45672214 27.5330792,5.45672214 L29.3889899,5.45672214 Z" id="Fill-5"></path>
                <polygon id="Fill-7" points="40.6391123 0.0839526718 40.6391123 16.8813725 43.1766242 16.8813725 43.2000865 0.0839526718"></polygon>
                <path d="M55.5678335,11.1565527 C55.5678335,13.8658275 54.6749863,15.2086672 52.8893772,15.2086672 C50.7042264,15.2086672 50.0464288,13.7009115 50.0464288,11.1565527 C50.0464288,9.15404885 50.6337542,6.98662901 52.8893772,6.98662901 C54.6749863,6.98662901 55.5678335,8.37665954 55.5678335,11.1565527 M58.2462899,11.1330412 C58.2462899,8.02331603 56.9070617,5.10201832 52.8893772,5.10201832 C50.35178,5.10201832 48.6366431,6.4212626 47.9082879,8.18814809 C47.5558415,9.05983511 47.3913494,10.0492473 47.3913494,11.1565527 C47.3913494,12.9235221 47.8142681,14.3605756 48.6366431,15.4677969 C49.4824804,16.5515069 50.8452562,17.0933618 52.7013375,17.0933618 C56.8600518,17.0933618 58.2462899,14.1720641 58.2462899,11.1330412" id="Fill-10"></path>
                <path d="M69.3210081,9.17763588 C69.3210081,10.708987 68.2402065,11.4863763 66.6425518,11.4863763 C65.2563137,11.4863763 64.3869288,10.5911779 64.3869288,9.17763588 C64.3869288,7.69347557 65.2328514,6.82178855 66.8305062,6.82178855 C68.592653,6.82178855 69.3210081,7.85830763 69.3210081,9.17763588 L69.3210081,9.17763588 Z M67.6528812,16.363071 C69.2270736,16.363071 70.025901,16.9756282 70.025901,18.2006588 C70.025901,19.4256893 68.8746272,20.2031626 66.8775161,20.2031626 C64.5984308,20.2031626 63.8700756,19.4256893 63.8700756,18.2006588 C63.8700756,17.4702924 64.5044109,16.5750939 65.0918216,16.363071 L67.6528812,16.363071 Z M63.2826649,12.3109565 C62.1079288,12.6407885 61.5205181,13.3240481 61.5205181,14.3605672 C61.5205181,15.2557656 61.966899,15.821216 62.8832085,16.0332389 C62.0609188,16.5043916 61.3794883,17.5174832 61.3794883,18.6483 C61.3794883,20.8863382 63.0947105,21.9936435 66.501522,21.9936435 C70.4488196,21.9936435 72.6104228,20.4151855 72.6104228,18.1300405 C72.6104228,15.8448115 71.0126827,14.6668038 68.1227244,14.6668038 L64.9508772,14.6668038 C64.2929942,14.6668038 63.8700756,14.3841626 63.8700756,13.9836282 C63.8700756,13.4418573 64.4339387,13.1826435 65.5382026,13.1826435 L66.8305062,13.1590481 C68.3107641,13.1590481 69.5325101,12.8057046 70.4722819,12.122529 C71.4121391,11.415758 71.8820677,10.4262618 71.8820677,9.17763588 C71.8820677,8.18813969 71.6471034,7.43426183 71.1771748,6.89240687 L71.2241847,6.77459771 L72.9393216,6.77459771 L72.9393216,5.33754427 L69.0390339,5.33754427 C68.4046986,5.14903282 67.6293335,5.05481908 66.7365716,5.05481908 C65.3972581,5.05481908 64.2459843,5.40824656 63.2826649,6.11501756 C62.3193454,6.82178855 61.8494169,7.88190305 61.8494169,9.29544504 C61.8494169,10.708987 62.3428077,11.6983992 63.3296748,12.2402542 L63.2826649,12.3109565 Z" id="Fill-12"></path>
                <path d="M83.238999,11.1565527 C83.238999,13.8658275 82.3461518,15.2086672 80.5605427,15.2086672 C78.3753919,15.2086672 77.7175089,13.7009115 77.7175089,11.1565527 C77.7175089,9.15404885 78.3049196,6.98662901 80.5605427,6.98662901 C82.3461518,6.98662901 83.238999,8.37665954 83.238999,11.1565527 M85.9174554,11.1330412 C85.9174554,8.02331603 84.5782272,5.10201832 80.5605427,5.10201832 C78.0230308,5.10201832 76.3078085,6.4212626 75.5794534,8.18814809 C75.2270069,9.05983511 75.0626002,10.0492473 75.0626002,11.1565527 C75.0626002,12.9235221 75.4855188,14.3605756 76.3078085,15.4677969 C77.1536458,16.5515069 78.5164216,17.0933618 80.372503,17.0933618 C84.5312173,17.0933618 85.9174554,14.1720641 85.9174554,11.1330412" id="Fill-15"></path>
            </g>
        </g>
    </g>
</svg>