<?xml version="1.0" encoding="UTF-8"?>
<svg width="45px" height="45px" viewBox="0 0 45 45" version="1.1" xmlns="http://www.w3.org/2000/svg" xmlns:xlink="http://www.w3.org/1999/xlink">
    <!-- Generator: Sketch 42 (36781) - http://www.bohemiancoding.com/sketch -->
    <title>Group 25</title>
    <desc>Created with Sketch.</desc>
    <defs>
        <path d="M45,22.5 C45,10.0735931 34.9264069,0 22.5,0 C10.0735931,0 0,10.0735931 0,22.5 C0,34.9264069 10.0735931,45 22.5,45 C34.9264069,45 45,34.9264069 45,22.5 Z M4,22.5 C4,12.2827321 12.2827321,4 22.5,4 C32.7172679,4 41,12.2827321 41,22.5 C41,32.7172679 32.7172679,41 22.5,41 C12.2827321,41 4,32.7172679 4,22.5 Z" id="loader-path"></path>
        <linearGradient x1="64.059806%" y1="96.8965833%" x2="64.0598059%" y2="1.4449139%" id="linearGradient-loader">
            <stop stop-color="#3D4CC5" offset="0%"></stop>
            <stop stop-color="#8B51F5" offset="100%"></stop>
        </linearGradient>
    </defs>
    <g id="Page-1" stroke="none" stroke-width="1" fill="none" fill-rule="evenodd">
        <g id="m_main" transform="translate(-101.000000, -2643.000000)">
            <g id="Group-10" transform="translate(101.000000, 2643.000000)">
                <g id="Group-25">
                    <g id="Rectangle-14">
                        <mask id="loader-mask" fill="white">
                            <use xlink:href="#loader-path"></use>
                        </mask>
                        <use id="Mask" fill="currentColor" fill-rule="nonzero" xlink:href="#loader-path"></use>
                        <path d="M-10,-1 L23,0.0184423923 C23,0.0184423923 25.1351204,0.27113378 24.8216019,2.24295068 C24.5080833,4.21476758 23,4.00397205 23,4.00397205 L4.07842731,24 C4.07842731,24 4.20296288,25.5000362 2.31287956,25.7442493 C0.422796249,25.9884624 0.0283670425,24 0.0283670425,24 L-10,-1 Z" fill="url(#linearGradient-loader)" mask="url(#loader-mask)"></path>
                    </g>
                </g>
            </g>
        </g>
    </g>
</svg>