<svg width="170px" height="49px" viewBox="0 0 170 49" version="1.1" xmlns="http://www.w3.org/2000/svg" xmlns:xlink="http://www.w3.org/1999/xlink">
    <defs>
        <linearGradient x1="105.28106%" y1="-16.2709099%" x2="2.29546953%" y2="160.239978%" id="linearGradient-logo">
            <stop stop-color="#F549A0" offset="0%"></stop>
            <stop stop-color="#2462C8" offset="100%"></stop>
        </linearGradient>
    </defs>
    <g id="logo" fill="url(#linearGradient-logo)">
        <path d="M57.07987,26.9576811 C55.4781198,27.5705275 53.8259704,29.422117 53.4054519,31.0737745 L50.3678489,43.8339253 C49.9483804,45.4871489 48.3907295,45.6265271 48.0914842,43.9477247 L39.703164,4.99491624 C39.4028687,3.31611387 40.5379011,1.68533696 42.222075,1.37160554 C42.222075,1.37160554 46.4094102,0.7467528 49.2091918,0.253448002 C56.9333973,-1.10849085 64.3063831,4.0135268 65.6766119,11.6949872 C67.6789309,22.9162358 57.07987,26.9576811 57.07987,26.9576811 Z M97.7289406,35.2405035 L87.8921679,32.2018504 C85.4472808,31.4454497 81.3512942,30.7866659 78.7909089,30.7323763 L68.4968682,30.52096 C65.9359579,30.4692804 65.1652698,28.8113587 66.7848697,26.8402275 L85.4530557,4.0970493 C87.0726556,2.12539616 89.1400736,2.45948618 90.0483096,4.83935557 L100.522422,32.2853729 C101.431183,34.6657643 100.173828,35.9958602 97.7289406,35.2405035 Z M141.624036,42.3122497 L134.192776,37.3922521 C132.797348,36.4682844 130.997676,36.9020794 130.193913,38.355371 L125.933079,46.058234 C125.129316,47.5120477 123.60054,47.6509038 122.536382,46.3677893 L116.962543,39.6442276 C115.898384,38.3605911 114.048838,38.2603641 112.851857,39.421327 L106.395506,45.6834268 C105.19905,46.8443896 104.595834,46.490463 105.055202,44.8972712 L108.374201,33.389958 C108.833569,31.7967662 108.574748,29.290047 107.799335,27.8190069 L102.359894,17.5044995 C101.584481,16.0334594 102.108423,15.5599912 103.525376,16.4521159 L110.99706,21.155999 C112.413488,22.0476018 114.239935,21.5934482 115.055247,20.1458987 L119.143884,12.887793 C119.959196,11.4402436 121.526297,11.2820728 122.62563,12.5359544 L128.204719,18.8988033 C129.304052,20.1526849 131.190348,20.2367295 132.396254,19.0851629 L138.670432,13.0924231 C139.876338,11.9408566 140.476929,12.2989593 140.004961,13.889019 L136.694362,25.0481478 C136.22292,26.6376855 136.463366,29.1459707 137.228279,30.622231 L142.769043,41.3078915 C143.534481,42.7841518 143.019464,43.2362174 141.624036,42.3122497 Z M53.073657,8.77691969 C50.7069937,9.1940102 50.9715896,11.1171159 51.3905331,13.4719285 C51.8121015,15.8262192 52.2273701,17.72218 54.5956085,17.3050895 C56.9643718,16.886955 58.5430223,14.6396776 58.1240788,12.2843429 C57.7035603,9.93005228 55.4445203,8.35878514 53.073657,8.77691969 Z M87.9168426,17.8589481 C87.0070316,15.4780347 84.9390887,15.1455107 83.3221137,17.1192519 L81.4368679,19.4166429 C79.8193679,21.388296 80.5627564,23.3359364 83.0905923,23.7441527 L86.0315967,24.2170989 C88.5594326,24.6253151 89.8834621,23.0096766 88.9752262,20.6292852 L87.9168426,17.8589481 Z M168.403871,38.2311312 C168.403871,38.2311312 158.16653,44.2718965 149.732535,36.7538269 C142.69187,30.4781547 140.765149,19.5821218 147.310223,12.7974843 C156.811001,2.94965888 167.156491,9.38454591 167.156491,9.38454591 C169.43443,10.5460308 170.275467,12.1470528 168.899989,14.2920151 L157.897734,31.4501478 C155.850791,35.5406625 167.753406,35.7787017 167.753406,35.7787017 C170.313267,35.8277712 170.606737,36.9323563 168.403871,38.2311312 Z M159.005467,15.0150068 C157.662013,14.0983473 155.045453,14.0597182 153.281481,16.6181169 C151.518558,19.1765157 151.781579,22.4057045 153.125033,23.320798 C154.466912,24.2358914 156.684478,22.3169619 158.446351,19.7585631 C160.210848,17.2038185 160.348396,15.9285342 159.005467,15.0150068 Z M35.7289756,47.822647 C33.4331861,49.4001783 31.4140674,48.989874 31.245545,46.9101636 C31.0770226,44.8283652 28.8767816,42.1546009 26.3531457,40.9654493 L11.9641685,34.1766356 C9.44158255,32.988528 5.96561137,32.9859179 4.23943809,34.1729815 C2.51116485,35.3584791 0.914139576,34.0649243 0.689443055,31.2992853 L0.276799444,26.2305133 C0.0515779307,23.4648743 1.51788023,21.9781737 3.53437401,22.9313743 C5.55244276,23.8819648 9.08196312,23.3709115 11.3788026,21.7939022 L29.9136406,9.06924846 C32.212055,7.49223915 34.2752731,8.46579835 34.4999696,11.2319593 L36.3164415,33.5528269 C36.541663,36.3189879 38.3875344,39.3665153 40.4197779,40.3254581 C42.4504465,41.2838788 42.2336248,43.3588911 39.9362604,44.9343343 L35.7289756,47.822647 Z M28.0388946,24.6326233 C27.8273229,21.8654183 25.7683048,20.8845509 23.4646404,22.4516419 L20.781932,24.2745206 C18.4787926,25.8421336 18.6525649,28.1050715 21.168851,29.3067515 L24.0967307,30.7041875 C26.6140667,31.9053455 28.4993125,30.621709 28.2866908,27.855548 L28.0388946,24.6326233 Z"></path>
    </g>
</svg>