<?xml version="1.0" encoding="UTF-8"?>
<svg width="18px" height="18px" viewBox="0 0 18 18" version="1.1" xmlns="http://www.w3.org/2000/svg" xmlns:xlink="http://www.w3.org/1999/xlink">
    <!-- Generator: Sketch 42 (36781) - http://www.bohemiancoding.com/sketch -->
    <title>Combined Shape</title>
    <desc>Created with Sketch.</desc>
    <defs></defs>
    <g id="Page-1" stroke="none" stroke-width="1" fill="none" fill-rule="evenodd">
        <g class="icon-color" id="main" transform="translate(-598.000000, -1378.000000)" fill="#E27E35">
            <g id="Group-15" transform="translate(36.000000, 1243.000000)">
                <g id="Group-16">
                    <path d="M571,153 C562,153 562,153 562,144 C562,135 562,135 571,135 C580,135 580,135 580,144 C580,153 580,153 571,153 Z M572.409766,147.060352 C573.119922,146.898633 573.803711,146.617383 574.433025,146.221875 C574.909393,145.921289 575.053533,145.29201 574.75293,144.813867 C574.452344,144.335742 573.823064,144.191602 573.344922,144.492188 C571.917578,145.39043 570.080664,145.388672 568.65332,144.492188 C568.175213,144.191602 567.545898,144.335742 567.245313,144.813867 C566.944727,145.290234 567.088867,145.921289 567.565234,146.221875 C568.194531,146.617383 568.87832,146.898633 569.588477,147.060352 L567.642578,149.008008 C567.243572,149.407014 567.243572,150.052131 567.642578,150.451172 C567.842969,150.649805 568.103125,150.75 568.363281,150.75 C568.625195,150.75 568.885352,150.649805 569.08576,150.451172 L571,148.536914 L572.914258,150.451172 C573.313281,150.850195 573.958398,150.850195 574.357422,150.451172 C574.756445,150.052148 574.756445,149.405273 574.357422,149.008008 L572.409766,147.060352 Z M571,144.217969 C572.921307,144.217969 574.483984,142.655273 574.483984,140.735725 C574.483984,138.812695 572.921307,137.25 571,137.25 C569.078711,137.25 567.516033,138.812695 567.516033,140.733984 C567.516033,142.655273 569.078711,144.217969 571,144.217969 Z M571,139.292578 C571.796307,139.292578 572.443182,139.939453 572.443182,140.735742 C572.443182,141.530273 571.796307,142.177148 571,142.177148 C570.205486,142.177148 569.556836,141.530273 569.556836,140.735742 C569.556836,139.939453 570.205486,139.292578 571,139.292578 Z" id="Combined-Shape"></path>
                </g>
            </g>
        </g>
    </g>
</svg>