<?xml version="1.0" encoding="UTF-8"?>
<svg width="20px" height="20px" viewBox="0 0 20 20" version="1.1" xmlns="http://www.w3.org/2000/svg" xmlns:xlink="http://www.w3.org/1999/xlink">
    <!-- Generator: Sketch 42 (36781) - http://www.bohemiancoding.com/sketch -->
    <title>telegram</title>
    <desc>Created with Sketch.</desc>
    <defs>
        <linearGradient x1="64.6541667%" y1="15.8041667%" x2="39.6541667%" y2="74.1366667%" id="linearGradient-telegram1">
            <stop stop-color="#37AEE2" offset="0%"></stop>
            <stop stop-color="#1E96C8" offset="100%"></stop>
        </linearGradient>
        <linearGradient x1="61.3438559%" y1="47.150188%" x2="80.4983437%" y2="83.7095963%" id="linearGradient-telegram2">
            <stop stop-color="#EFF7FC" offset="0%"></stop>
            <stop stop-color="#FFFFFF" offset="100%"></stop>
        </linearGradient>
    </defs>
    <g id="Page-1" stroke="none" stroke-width="1" fill="none" fill-rule="evenodd">
        <g id="main" transform="translate(-605.000000, -1107.000000)">
            <g id="telegram" transform="translate(605.000000, 1107.000000)">
                <g id="svg2">
                    <path d="M20,10 C20,15.525 15.525,20 10,20 C4.475,20 0,15.525 0,10 C0,4.475 4.475,0 10,0 C15.525,0 20,4.475 20,10 L20,10 Z" id="path2995-1-0" fill="url(#linearGradient-telegram1)"></path>
                    <path d="M8.16666667,14.5833333 C7.84166667,14.5833333 7.9,14.4583333 7.78333333,14.15 L6.83333333,11.0166667 L12.7333333,7.33333333 L13.425,7.51666667 L12.85,9.08333333 L8.16666667,14.5833333 L8.16666667,14.5833333 Z" id="path2993" fill="#C8DAEA"></path>
                    <path d="M8.50256348,14.3555908 C8.71923014,14.1472575 11.6666667,11.4166667 11.6666667,11.4166667 L9.95833333,11 L8.375,12 L8.00256348,14.5222575 L8.00256348,14.6055908 C8.25256348,14.6055908 8.36089681,14.4889242 8.50256348,14.3555908 Z" id="path2989" fill="#A9C9DD"></path>
                    <path d="M8.33333333,12.0333333 L12.3666667,15.0083333 C12.825,15.2583333 13.1583333,15.1333333 13.275,14.5833333 L14.9166667,6.85 C15.0833333,6.175 14.6583333,5.875 14.2166667,6.075 L4.58333333,9.79166667 C3.925,10.0583333 3.93333333,10.425 4.46666667,10.5833333 L6.94166667,11.3583333 L12.6666667,7.75 C12.9333333,7.58333333 13.1833333,7.675 12.9833333,7.85833333 L8.33333333,12.0333333 L8.33333333,12.0333333 Z" id="path2991" fill="url(#linearGradient-telegram2)"></path>
                </g>
            </g>
        </g>
    </g>
</svg>