<?xml version="1.0" encoding="UTF-8"?>
<svg width="18px" height="18px" viewBox="0 0 18 18" version="1.1" xmlns="http://www.w3.org/2000/svg" xmlns:xlink="http://www.w3.org/1999/xlink">
    <!-- Generator: Sketch 42 (36781) - http://www.bohemiancoding.com/sketch -->
    <title>Combined Shape</title>
    <desc>Created with Sketch.</desc>
    <defs>
        <linearGradient x1="64.059806%" y1="96.8965833%" x2="64.0598059%" y2="1.4449139%" id="linearGradient-verified">
            <stop stop-color="#4251C6" offset="0%"></stop>
            <stop stop-color="#935CF8" offset="100%"></stop>
        </linearGradient>
    </defs>
    <g id="Page-1" stroke="none" stroke-width="1" fill="none" fill-rule="evenodd">
        <g id="main" transform="translate(-403.000000, -1378.000000)" fill="url(#linearGradient-verified)">
            <path d="M420.907,1388.65776 L421,1389.23166 C421,1389.81157 420.712,1390.37045 420.208,1390.722 C418.594,1391.83976 418.807,1391.55732 418.198,1393.38118 C417.946,1394.14138 417.208,1394.65519 416.383,1394.65519 L416.377,1394.65519 C414.385,1394.64918 414.73,1394.54101 413.128,1395.67078 C412.792,1395.91116 412.396,1396.02835 412,1396.02835 C411.604,1396.02835 411.208,1395.91116 410.872,1395.67379 C409.27,1394.54401 409.615,1394.65218 407.623,1394.65819 L407.617,1394.65819 C406.792,1394.65819 406.054,1394.14438 405.802,1393.38419 C405.193,1391.56032 405.403,1391.84277 403.795,1390.72501 C403.288,1390.37045 403,1389.81157 403,1389.23166 L403.093,1388.66076 C403.714,1386.84591 403.717,1387.19446 403.093,1385.37359 L403,1384.79969 C403,1384.21978 403.288,1383.6609 403.795,1383.30634 C405.403,1382.18859 405.19,1382.47403 405.802,1380.64716 C406.054,1379.88697 406.792,1379.37316 407.617,1379.37316 L407.623,1379.37316 C409.609,1379.37917 409.255,1379.49635 410.872,1378.35756 C411.208,1378.11718 411.604,1378 412,1378 C412.396,1378 412.792,1378.11718 413.128,1378.35456 C414.73,1379.48433 414.385,1379.37616 416.377,1379.37015 L416.383,1379.37015 C417.208,1379.37015 417.946,1379.88396 418.198,1380.64416 C418.807,1382.46803 418.594,1382.18558 420.208,1383.30334 C420.712,1383.6579 421,1384.21677 421,1384.79669 L420.907,1385.37059 C420.286,1387.18544 420.283,1386.83689 420.907,1388.65776 L420.907,1388.65776 Z M416.5,1385.0581 L415.105,1383.66391 L410.875,1388.00874 L408.895,1386.12477 L407.5,1387.51897 L410.875,1390.79712 L416.5,1385.0581 L416.5,1385.0581 Z" id="Combined-Shape"></path>
        </g>
    </g>
</svg>