<?xml version="1.0" encoding="UTF-8"?>
<svg width="18px" height="18px" viewBox="0 0 18 18" version="1.1" xmlns="http://www.w3.org/2000/svg" xmlns:xlink="http://www.w3.org/1999/xlink">
    <!-- Generator: Sketch 42 (36781) - http://www.bohemiancoding.com/sketch -->
    <title>Combined Shape</title>
    <desc>Created with Sketch.</desc>
    <defs></defs>
    <g id="Page-1" stroke="none" stroke-width="1" fill="none" fill-rule="evenodd">
        <g id="main" transform="translate(-577.000000, -1108.000000)" fill="#7B519D">
            <path d="M577,1109.99509 C577,1108.89323 577.892623,1108 578.995089,1108 L593.004911,1108 C594.106768,1108 595,1108.89262 595,1109.99509 L595,1124.00491 C595,1125.10677 594.107377,1126 593.004911,1126 L578.995089,1126 C577.893232,1126 577,1125.10738 577,1124.00491 L577,1109.99509 Z M591.832949,1120.14497 C591.404113,1119.79974 590.945852,1119.48987 590.494762,1119.17332 C589.595113,1118.54146 588.772246,1118.49235 588.100937,1119.50893 C587.723957,1120.07965 587.196227,1120.10465 586.644414,1119.85427 C585.123203,1119.1645 583.948527,1118.10173 583.260449,1116.55555 C582.956066,1115.87148 582.960074,1115.25818 583.672234,1114.77436 C584.049285,1114.5185 584.429148,1114.21573 584.398773,1113.65664 C584.359117,1112.92764 582.589105,1110.49142 581.890129,1110.23429 C581.600898,1110.12787 581.312863,1110.13479 581.018605,1110.23369 C579.379621,1110.78487 578.700754,1112.13279 579.350898,1113.72882 C581.290469,1118.49045 584.703789,1121.80533 589.402422,1123.82857 C589.670313,1123.94378 589.96791,1123.98984 590.11859,1124.03118 C591.188324,1124.04194 592.441469,1123.0113 592.803367,1121.98846 C593.151801,1121.00444 592.415418,1120.61385 591.832949,1120.14497 Z M586.564609,1110.72246 C589.999621,1111.25069 591.583797,1112.88405 592.021211,1116.34377 C592.061781,1116.66334 591.942742,1117.14421 592.398684,1117.15307 C592.875191,1117.16218 592.760371,1116.68841 592.764379,1116.36852 C592.804668,1113.1101 589.963516,1110.08941 586.663926,1109.97803 C586.414984,1110.01386 585.899875,1109.80636 585.867742,1110.36433 C585.846332,1110.7405 586.28002,1110.6787 586.564609,1110.72246 L586.564609,1110.72246 Z M586.163031,1112.29461 C586.088956,1112.73677 586.535666,1112.69186 586.822694,1112.75612 C588.772155,1113.19181 589.450942,1113.90135 589.771922,1115.83511 C589.818796,1116.11704 589.725661,1116.55583 590.204773,1116.48312 C590.559834,1116.42904 590.431584,1116.05291 590.461272,1115.83321 C590.477005,1113.97666 588.886158,1112.28686 586.938377,1112.05297 C586.634777,1112.0164 586.233972,1111.87336 586.163031,1112.29461 Z M586.65958,1114.48865 C586.456933,1114.49366 586.258033,1114.51559 586.183538,1114.73216 C586.071667,1115.05586 586.307006,1115.13303 586.546546,1115.17151 C587.34625,1115.29989 587.767116,1115.77144 587.847005,1116.56891 C587.868585,1116.78535 588.005945,1116.96074 588.215021,1116.93606 C588.504762,1116.90149 588.530961,1116.6436 588.522077,1116.3987 C588.536388,1115.50276 587.523732,1114.4672 586.65958,1114.48865 L586.65958,1114.48865 Z" id="Combined-Shape"></path>
        </g>
    </g>
</svg>