<svg width="28px" height="18px" viewBox="0 0 28 18" version="1.1" xmlns="http://www.w3.org/2000/svg" xmlns:xlink="http://www.w3.org/1999/xlink">
    <g stroke="none" stroke-width="1" fill="none" fill-rule="evenodd">
        <g transform="translate(-252.000000, -3223.000000)" fill="currentColor">
            <g transform="translate(47.000000, 3221.000000)">
                <path d="M215.287902,8.27450337 C214.945231,7.93292591 214.945231,7.37877856 215.287902,7.03741985 C215.62926,6.69584239 216.183408,6.69584239 216.524767,7.03741985 C216.866563,7.37877856 216.866563,7.93292591 216.524767,8.27450337 C216.183408,8.61695583 215.62926,8.61695583 215.287902,8.27450337 L215.287902,8.27450337 L215.287902,8.27450337 Z M222.712044,7.03741985 C224.761891,9.0873221 224.761891,12.41155 222.712044,14.4618897 C220.662196,16.512667 217.337804,16.512667 215.287902,14.4618897 C214.253982,13.4287902 213.737022,12.1034959 213.750256,10.7495454 L213.754959,10.7495454 C213.754959,10.525874 213.840819,10.3022025 214.011717,10.1313044 C214.353075,9.78885197 214.907223,9.78885197 215.249019,10.1313044 C215.424183,10.3066869 215.505776,10.5388896 215.501073,10.7698344 C215.498503,11.6702624 215.839041,12.5384247 216.524712,13.2245875 C217.891897,14.5917723 220.107994,14.5917723 221.474741,13.2245875 C222.841051,11.8574026 222.841051,9.64146945 221.474741,8.27450337 C220.788141,7.5885594 219.918776,7.248896 219.019387,7.25168506 C218.788223,7.25726317 218.556239,7.17479458 218.381075,6.99831836 C218.039279,6.65695965 218.039279,6.1028123 218.381075,5.76123484 C218.551536,5.59055549 218.775426,5.50507909 218.999699,5.50507909 L218.999699,5.49950098 C220.353704,5.49228224 221.678944,6.00437499 222.712044,7.03741985 L222.712044,7.03741985 L222.712044,7.03741985 Z M232.124947,11.6245437 C231.774182,11.6245437 231.475097,11.4164582 231.334988,11.1199431 C228.908289,6.95752157 224.161642,3.74934033 218.999754,3.74934033 C213.820748,3.74934033 209.309585,6.5695692 206.88841,10.7495454 C209.309585,14.9301232 213.820803,17.7495317 218.999754,17.7495317 C221.366241,17.7495317 223.593495,17.1595095 225.545069,16.1208865 L225.548897,16.1281599 C225.680475,16.0486991 225.833873,15.9991523 226.000068,15.9991523 C226.482411,15.9991523 226.875067,16.3922453 226.875067,16.8745881 C226.875067,17.2586577 226.625583,17.5816961 226.282037,17.6996021 C224.105642,18.8428421 221.63153,19.4999658 218.999754,19.4999658 C212.819313,19.4999658 207.578784,15.9307384 205,10.7495454 C207.578784,5.56835241 212.819313,2 218.999754,2 C224.94307,2 230.104576,5.23147806 232.784641,10.0924764 C232.844032,10.2001559 232.896149,10.3050463 232.935906,10.4238273 C232.976922,10.5248896 233,10.6344831 233,10.7496001 C232.999945,11.2327632 232.60729,11.6245437 232.124947,11.6245437 L232.124947,11.6245437 L232.124947,11.6245437 Z M228.624134,14.2499761 C229.107789,14.2499761 229.499569,14.6413191 229.499569,15.1249744 C229.499569,15.6077547 229.107789,15.9990977 228.624134,15.9990977 C228.141791,15.9990977 227.749135,15.6077547 227.749135,15.1249744 C227.749135,14.6413191 228.141791,14.2499761 228.624134,14.2499761 L228.624134,14.2499761 L228.624134,14.2499761 Z"></path>
            </g>
        </g>
    </g>
</svg>