<?xml version="1.0" encoding="UTF-8"?>
<svg width="34px" height="34px" viewBox="0 0 34 34" version="1.1" xmlns="http://www.w3.org/2000/svg" xmlns:xlink="http://www.w3.org/1999/xlink">
    <!-- Generator: Sketch 42 (36781) - http://www.bohemiancoding.com/sketch -->
    <title>Combined Shape</title>
    <desc>Created with Sketch.</desc>
    <defs></defs>
    <g id="Page-1" stroke="none" stroke-width="1" fill="none" fill-rule="evenodd">
        <g class="icon-color" id="main" transform="translate(-361.000000, -2835.000000)" fill="#427EC0">
            <g id="Group-26" transform="translate(0.000000, 2733.000000)">
                <path d="M393.130086,136 L362.987693,136 C361.954592,136 361.117647,135.159627 361.117647,134.123344 L361.117647,103.876524 C361.117647,102.839977 361.954724,102 362.987693,102 L393.130086,102 C394.162792,102 395,102.839977 395,103.876524 L395,134.123344 C395,135.159759 394.16266,136 393.130086,136 Z M377.148518,125.736381 L378.646994,125.736381 C378.646994,125.736381 379.099521,125.68633 379.330904,125.436514 C379.543573,125.206896 379.536775,124.776008 379.536775,124.776008 C379.536775,124.776008 379.507466,122.758346 380.440504,122.461224 C381.360654,122.168355 382.541937,124.411205 383.793934,125.273691 C384.740745,125.926135 385.460232,125.783333 385.460232,125.783333 L388.808277,125.736381 C388.808277,125.736381 390.559588,125.627951 389.729132,124.246168 C389.661156,124.133307 389.245354,123.224048 387.239706,121.355921 C385.140214,119.400624 385.421653,119.716969 387.950453,116.334798 C389.490509,114.275058 390.106091,113.017651 389.913727,112.479129 C389.730456,111.966032 388.597639,112.10157 388.597639,112.10157 L384.828054,112.124957 C384.828054,112.124957 384.548381,112.086776 384.341274,112.211153 C384.13867,112.332783 384.008633,112.616971 384.008633,112.616971 C384.008633,112.616971 383.411767,114.210743 382.616358,115.566393 C380.937789,118.42652 380.266503,118.577915 379.992127,118.400032 C379.353769,117.986064 379.513292,116.737339 379.513292,115.849961 C379.513292,113.078067 379.932272,111.922358 378.697402,111.6232 C378.287692,111.523982 377.98586,111.458339 376.93788,111.44762 C375.592747,111.433889 374.454545,111.451783 373.809919,111.768659 C373.381052,111.979409 373.050176,112.448921 373.251809,112.47594 C373.501025,112.509249 374.065139,112.628753 374.364234,113.03714 C374.750638,113.564677 374.737131,114.74891 374.737131,114.74891 C374.737131,114.74891 374.959157,118.011843 374.218747,118.417041 C373.710692,118.695027 373.013628,118.127538 371.517094,115.532641 C370.750464,114.203479 370.171431,112.734083 370.171431,112.734083 C370.171431,112.734083 370.059933,112.459551 369.860772,112.312585 C369.619236,112.134525 369.281739,112.078095 369.281739,112.078095 L365.699487,112.10157 C365.699487,112.10157 365.161856,112.11663 364.964284,112.351298 C364.788517,112.560186 364.950249,112.991695 364.950249,112.991695 C364.950249,112.991695 367.754573,119.575673 370.930204,122.893618 C373.842318,125.936057 377.148518,125.736381 377.148518,125.736381 Z" id="Combined-Shape"></path>
            </g>
        </g>
    </g>
</svg>