<?xml version="1.0" encoding="UTF-8"?>
<svg width="22px" height="23px" viewBox="0 0 22 23" version="1.1" xmlns="http://www.w3.org/2000/svg" xmlns:xlink="http://www.w3.org/1999/xlink">
    <!-- Generator: Sketch 42 (36781) - http://www.bohemiancoding.com/sketch -->
    <title>Ebene_1</title>
    <desc>Created with Sketch.</desc>
    <defs>
        <path d="M10.5957969,20.8829627 C10.5956723,20.8829627 10.5954231,20.8829627 10.5957969,20.8829627 M0.125238462,10.4580379 C0.124615385,12.2936452 0.606503077,14.0859698 1.52292462,15.6656015 L0.0375092308,21.0635345 L5.58800308,19.614991 C7.11715846,20.444431 8.83896923,20.8822186 10.5911862,20.8828387 L10.5959215,20.8828387 C16.3661123,20.8828387 21.06324,16.2096735 21.0657323,10.4659751 C21.0668538,7.68273761 19.9787123,5.06568574 18.0018138,3.09675789 C16.0252892,1.12783005 13.3964031,0.042910622 10.5954231,0.0416704306 C4.82436,0.0417944498 0.127481538,4.71458756 0.125238462,10.4580379" id="whatsapp-path"></path>
        <linearGradient x1="49.9237276%" y1="100.14732%" x2="49.9237276%" y2="0.123500192%" id="linearGradient-whatsapp">
            <stop stop-color="#20B038" offset="0%"></stop>
            <stop stop-color="#60D66A" offset="100%"></stop>
        </linearGradient>
        <rect id="whatsapp-path-4" x="0.0893492308" y="0.0751555981" width="12.3243369" height="11.489133"></rect>
        <rect id="whatsapp-path-6" x="0.0893492308" y="0.0750315789" width="12.3243369" height="11.489257"></rect>
    </defs>
    <g id="Symbols" stroke="none" stroke-width="1" fill="none" fill-rule="evenodd">
        <g id="Ebene_1">
            <g>
                <g id="Group" fill="#FFFFFF">
                    <g id="Clipped" transform="translate(0.033846, 0.776268)">
                        <path d="M0.0341446154,21.8124861 L1.57289538,16.2210833 C0.623824615,14.5847747 0.124490769,12.7283322 0.125238462,10.8264988 C0.127606154,4.87705263 4.99271538,0.0368336842 10.9710138,0.0368336842 C13.8721846,0.0380738756 16.59528,1.16181129 18.64296,3.20130603 C20.6905154,5.24092478 21.8177862,7.95198316 21.8167892,10.8353041 C21.8141723,16.7845022 16.94844,21.6257133 10.9710138,21.6257133 C10.97064,21.6257133 10.9712631,21.6257133 10.9710138,21.6257133 L10.9664031,21.6257133 C9.15138,21.6249692 7.36776,21.1719273 5.78364923,20.3121026 L0.0341446154,21.8124861 L0.0341446154,21.8124861 Z M6.05007692,18.3585531 L6.37943538,18.5527671 C7.76316462,19.3700532 9.34976769,19.8021359 10.9675246,19.803128 L10.9710138,19.803128 C15.9395538,19.803128 19.9833231,15.7795751 19.9854415,10.834436 C19.9861892,8.43801416 19.04958,6.18458641 17.3475831,4.4893688 C15.6454615,2.79439923 13.3824462,1.86028708 10.9743785,1.85929493 C6.00197538,1.85929493 1.95820615,5.88222775 1.95633692,10.8272429 C1.95571385,12.5218404 2.43199385,14.1721631 3.33445846,15.6001194 L3.54904615,15.9393118 L2.63810769,19.2488865 L6.05007692,18.3585531 L6.05007692,18.3585531 Z" id="Shape"></path>
                    </g>
                </g>
                <g id="Clipped" transform="translate(0.407692, 1.148325)">
                    <mask id="mask-2" fill="white">
                        <use xlink:href="#whatsapp-path"></use>
                    </mask>
                    <g id="SVGID_11_"></g>
                    <rect id="Rectangle-path" fill="url(#linearGradient-whatsapp)" mask="url(#mask-2)" x="0.0375092308" y="0.0417944498" width="21.02922" height="21.0218641"></rect>
                </g>
                <g id="Group" opacity="0.06" transform="translate(4.769231, 5.985072)">
                    <g id="Clipped">
                        <g>
                            <mask id="mask-5" fill="white">
                                <use xlink:href="#whatsapp-path-4"></use>
                            </mask>
                            <g id="SVGID_23_"></g>
                            <g mask="url(#mask-5)">
                                <mask id="mask-7" fill="white">
                                    <use xlink:href="#whatsapp-path-6"></use>
                                </mask>
                                <g id="SVGID_25_"></g>
                            </g>
                        </g>
                    </g>
                </g>
                <path d="M8.29422615,7.0920666 C8.09122769,6.64286928 7.87751231,6.6339399 7.68435846,6.6261267 C7.52634615,6.61942967 7.34552923,6.61980172 7.16508615,6.61980172 C6.98439385,6.61980172 6.6908,6.68726813 6.44256615,6.9572578 C6.19408308,7.22712344 5.49386923,7.87958813 5.49386923,9.2064689 C5.49386923,10.5334737 6.46499692,11.8157076 6.60045385,11.9957833 C6.73603538,12.1756111 8.47516769,14.9855127 11.2296662,16.0667116 C13.5188508,16.9649822 13.9846631,16.7862706 14.4816292,16.7413757 C14.9784708,16.6963567 16.0849308,16.089035 16.3108585,15.4592658 C16.5366615,14.8296207 16.5366615,14.2897654 16.4689954,14.177032 C16.4012046,14.0645466 16.2206369,13.9972042 15.9495985,13.8622714 C15.6784354,13.7274626 14.3462969,13.0748739 14.0978138,12.985084 C13.8493308,12.8950461 13.6687631,12.8501512 13.4879462,13.1201409 C13.3072538,13.3898825 12.7882308,13.9972042 12.6300938,14.177032 C12.4719569,14.3572318 12.3139446,14.3796792 12.0429062,14.2448704 C11.7717431,14.1095656 10.8989369,13.8250656 9.86363231,12.9063319 C9.05799385,12.1914856 8.51417231,11.3087173 8.35603538,11.0387277 C8.19789846,10.768986 8.33908769,10.6228915 8.47504308,10.4884547 C8.59679231,10.3675361 8.74608154,10.1735701 8.88153846,10.0160658 C9.01674615,9.85856153 9.06198154,9.74620019 9.15232769,9.56637244 C9.24267385,9.38629665 9.19743846,9.22879234 9.12977231,9.09398354 C9.06185692,8.95905072 8.53510769,7.6253489 8.29422615,7.0920666" id="Shape" fill="#FFFFFF"></path>
            </g>
        </g>
    </g>
</svg>